<?xml version="1.0" encoding="utf-8"?>
<!-- Generator: Adobe Illustrator 21.1.0, SVG Export Plug-In . SVG Version: 6.00 Build 0)  -->
<svg version="1.1" id="Layer_1" xmlns="http://www.w3.org/2000/svg" xmlns:xlink="http://www.w3.org/1999/xlink" x="0px" y="0px"
	 viewBox="0 0 160 160" style="enable-background:new 0 0 160 160;" xml:space="preserve">
<style type="text/css">
	.st0{fill:#02284C;}
	.st1{fill:#16538A;}
	.st2{fill:#BAE4F0;}
	.st3{fill:#55D2E0;}
	.st4{fill:#46C5D4;}
</style>
<path class="st0" d="M140,80c0-33.1-26.9-60-60-60S20,46.9,20,80c0,12.9,4.1,24.9,11,34.7C38.1,104.6,49.8,98,63,98
	c21.1,0,38.4,16.8,39,37.8C124.2,127.1,140,105.4,140,80z"/>
<title>myaccount</title>
<desc>Created with Sketch.</desc>
<path id="writing" class="st1" d="M90.2,74h35.7c1.4,0,2.5,1.1,2.5,2.5l0,0c0,1.4-1.1,2.5-2.5,2.5H90.2c-1.4,0-2.5-1.1-2.5-2.5l0,0
	C87.7,75.1,88.8,74,90.2,74z"/>
<path id="writing_1_" class="st1" d="M90.2,83h35.7c1.4,0,2.5,1.1,2.5,2.5l0,0c0,1.4-1.1,2.5-2.5,2.5H90.2c-1.4,0-2.5-1.1-2.5-2.5
	l0,0C87.7,84.1,88.8,83,90.2,83z"/>
<path class="st2" d="M63,98c-13.2,0-24.9,6.6-32,16.7C41.9,130,59.8,140,80,140c7.8,0,15.2-1.5,22-4.2C101.4,114.8,84.1,98,63,98z"
	/>
<path class="st3" d="M63.5,63C53.8,63,46,70.8,46,80.5S53.8,98,63.5,98c0.2,0,0.3,0,0.5,0V63C63.8,63,63.7,63,63.5,63z"/>
<path class="st4" d="M64,63L64,63v35l0,0c0,0,17.5,0,17.5-17.5S64,63,64,63z"/>
<path id="pen" class="st3" d="M118.8,65.4l34.6-34.6c0.4-0.4,1-0.4,1.4,0l2.1,2.1c0.4,0.4,0.4,1,0,1.4l-34.6,34.6h-3.5
	C118.8,68.9,118.8,65.4,118.8,65.4z"/>
<ellipse id="Oval-3" class="st2" cx="37.5" cy="37.5" rx="17.5" ry="17.5"/>
<path id="Shape" class="st1" d="M47.2,35.5L46,35c-0.3-0.1-0.5-0.4-0.7-0.7v-0.1c-0.1-0.3-0.1-0.7,0-1l0.5-1.2
	c0.3-0.4,0.2-1-0.1-1.3l-1.4-1.4C43.9,29,43.4,29,43,29.2l-1.3,0.5C41,30,40.3,29.7,40,29l-0.5-1.2c-0.1-0.5-0.5-0.8-1-0.8l0,0h-2
	l0,0c-0.5,0-0.9,0.3-1,0.8L35,29c-0.3,0.7-1,1-1.7,0.7L32,29.2c-0.4-0.3-0.9-0.2-1.3,0.1l-1.4,1.4C29,31.1,29,31.6,29.2,32l0.5,1.3
	c0.3,0.7,0,1.4-0.7,1.7l-1.2,0.5c-0.5,0.1-0.8,0.5-0.8,1v2c0,0.5,0.3,0.9,0.8,1L29,40c0.7,0.3,1,1,0.7,1.7L29.2,43
	c-0.3,0.4-0.2,0.9,0.1,1.3l1.4,1.4c0.3,0.3,0.9,0.4,1.2,0.1l1.3-0.5c0.8-0.3,1.5,0,1.8,0.7l0.5,1.2c0.1,0.5,0.5,0.8,1,0.8l0,0h2l0,0
	c0.5,0,0.9-0.3,1-0.8L40,46c0.3-0.7,1-1,1.7-0.7l1.2,0.5c0.4,0.3,0.9,0.2,1.3-0.1l1.4-1.4c0.3-0.3,0.4-0.9,0.1-1.2l-0.5-1.3
	C45,41,45.3,40.3,46,40l1.2-0.5c0.5-0.1,0.8-0.5,0.8-1v-2C48,36,47.7,35.6,47.2,35.5z M37.5,41.8c-2.4,0-4.3-1.9-4.3-4.3
	c0-2.4,1.9-4.3,4.3-4.3c2.4,0,4.3,1.9,4.3,4.3C41.8,39.9,39.9,41.8,37.5,41.8z"/>
</svg>
