<svg id="Layer_1" xmlns="http://www.w3.org/2000/svg" viewBox="0 0 160 160"><style>.st0{fill:#46c5d4}.st1{fill:#bae4f0}.st2{fill:#02284c}.st3{fill:#55d2e0}.st4{fill:#16538a}.st5{fill:#fff}</style><path class="st0" d="M48.9 74.5v56.9C58 136.8 68.6 140 80 140c33.1 0 60-26.9 60-60 0-2.9-.2-5.7-.6-8.5H51.9c-1.7 0-3 1.3-3 3z"/><path id="Rectangle-Copy-5_1_" class="st1" d="M97.1 112.4h36.3c1 0 1.9.8 1.9 1.9 0 1-.8 1.9-1.9 1.9H97.1c-1 0-1.9-.8-1.9-1.9.1-1.1.9-1.9 1.9-1.9z"/><title>projects</title><path class="st2" d="M42 57.1V54c0-1.7 1.3-3 3-3h34c1.7 0 3 1.3 3 3v6.1h54.7C128.4 36.8 106.2 20 80 20c-33.1 0-60 26.9-60 60 0 18.7 8.6 35.4 22 46.4V63.1v-6z"/><path class="st3" d="M48.9 74.5c0-1.7 1.3-3 3-3h87.5c-.6-3.9-1.5-7.7-2.8-11.3H81.9V54c0-1.6-1.3-3-3-3H45c-1.7 0-3 1.3-3 3v72.5c2.2 1.8 4.5 3.5 7 4.9V74.5z"/><path id="line" class="st3" d="M82.3 87.3h24.1c1 0 1.9.8 1.9 1.9 0 1-.8 1.9-1.9 1.9H82.3c-1 0-1.9-.8-1.9-1.9 0-1.1.9-1.9 1.9-1.9z"/><path id="Rectangle" class="st4" d="M63.7 112.4h24.1c1 0 1.9.8 1.9 1.9 0 1-.8 1.9-1.9 1.9H63.7c-1 0-1.9-.8-1.9-1.9.1-1.1.9-1.9 1.9-1.9z"/><path id="Rectangle-Copy" class="st1" d="M63.7 120.8h33.4c1 0 1.9.8 1.9 1.9 0 1-.8 1.9-1.9 1.9H63.7c-1 0-1.9-.8-1.9-1.9.1-1.1.9-1.9 1.9-1.9z"/><path id="Rectangle-Copy-6" class="st5" d="M63.7 104h14.8c1 0 1.9.8 1.9 1.9 0 1-.8 1.9-1.9 1.9H63.7c-1 0-1.9-.8-1.9-1.9.1-1.1.9-1.9 1.9-1.9z"/><path id="Rectangle-Copy-10" class="st1" d="M95.3 104h14.8c1 0 1.9.8 1.9 1.9 0 1-.8 1.9-1.9 1.9H95.3c-1 0-1.9-.8-1.9-1.9 0-1.1.8-1.9 1.9-1.9z"/><path id="Rectangle-Copy-12" class="st4" d="M118.4 104h27.8c1 0 1.9.8 1.9 1.9 0 1-.8 1.9-1.9 1.9h-27.8c-1 0-1.9-.8-1.9-1.9.1-1.1.9-1.9 1.9-1.9z"/><path id="Rectangle-Copy-11" class="st4" d="M113.8 120.8h7.4c1 0 1.9.8 1.9 1.9 0 1-.8 1.9-1.9 1.9h-7.4c-1 0-1.9-.8-1.9-1.9 0-1.1.9-1.9 1.9-1.9z"/><path id="Rectangle-Copy-8" class="st3" d="M86.9 104c1 0 1.9.8 1.9 1.9 0 1-.8 1.9-1.9 1.9-1 0-1.9-.8-1.9-1.9.1-1.1.9-1.9 1.9-1.9z"/><path id="Rectangle-Copy-9" class="st5" d="M105.5 120.8c1 0 1.9.8 1.9 1.9 0 1-.8 1.9-1.9 1.9-1 0-1.9-.8-1.9-1.9 0-1.1.8-1.9 1.9-1.9z"/><path id="Line" class="st1" d="M51.5 57.5h20.4c1 0 1.9.8 1.9 1.9 0 1-.8 1.9-1.9 1.9H51.5c-1 0-1.9-.8-1.9-1.9 0-1.1.8-1.9 1.9-1.9z"/><path class="st5" d="M70.4 94.4H64c-1.1 0-2-.9-2-2V86c0-1.1.9-2 2-2h6.4c1.1 0 2 .9 2 2v6.4c0 1.1-.9 2-2 2zM64 86v6.4h6.4V86H64z" id="Box_1_"/><path id="Rectangle_1_" class="st4" d="M63.7 112.4h24.1c1 0 1.9.8 1.9 1.9 0 1-.8 1.9-1.9 1.9H63.7c-1 0-1.9-.8-1.9-1.9.1-1.1.9-1.9 1.9-1.9z"/><path id="Rectangle-Copy_1_" class="st1" d="M63.7 120.8h33.4c1 0 1.9.8 1.9 1.9 0 1-.8 1.9-1.9 1.9H63.7c-1 0-1.9-.8-1.9-1.9.1-1.1.9-1.9 1.9-1.9z"/><path id="Rectangle-Copy-6_1_" class="st5" d="M63.7 104h14.8c1 0 1.9.8 1.9 1.9 0 1-.8 1.9-1.9 1.9H63.7c-1 0-1.9-.8-1.9-1.9.1-1.1.9-1.9 1.9-1.9z"/><path id="Rectangle-Copy-10_1_" class="st5" d="M95.3 104h14.8c1 0 1.9.8 1.9 1.9 0 1-.8 1.9-1.9 1.9H95.3c-1 0-1.9-.8-1.9-1.9 0-1.1.8-1.9 1.9-1.9z"/><path id="Rectangle-Copy-12_1_" class="st4" d="M118.4 104h27.8c1 0 1.9.8 1.9 1.9 0 1-.8 1.9-1.9 1.9h-27.8c-1 0-1.9-.8-1.9-1.9.1-1.1.9-1.9 1.9-1.9z"/><path id="Rectangle-Copy-11_1_" class="st4" d="M113.8 120.8h13.3c1 0 1.9.8 1.9 1.9 0 1-.8 1.9-1.9 1.9h-13.3c-1 0-1.9-.8-1.9-1.9 0-1.1.9-1.9 1.9-1.9z"/><path id="Rectangle-Copy-13_1_" class="st3" d="M141.8 112.4c1 0 1.9.8 1.9 1.9 0 1-.8 1.9-1.9 1.9-1 0-1.9-.8-1.9-1.9.1-1.1.9-1.9 1.9-1.9z"/><path id="Rectangle-Copy-8_1_" class="st3" d="M86.9 104c1 0 1.9.8 1.9 1.9 0 1-.8 1.9-1.9 1.9-1 0-1.9-.8-1.9-1.9.1-1.1.9-1.9 1.9-1.9z"/><path id="Rectangle-Copy-9_1_" class="st5" d="M105.5 120.8c1 0 1.9.8 1.9 1.9 0 1-.8 1.9-1.9 1.9-1 0-1.9-.8-1.9-1.9 0-1.1.8-1.9 1.9-1.9z"/></svg>