<?xml version="1.0" encoding="UTF-8" standalone="no"?><!DOCTYPE svg PUBLIC "-//W3C//DTD SVG 1.1//EN" "http://www.w3.org/Graphics/SVG/1.1/DTD/svg11.dtd"><svg width="100%" height="100%" viewBox="0 0 300 300" version="1.1" xmlns="http://www.w3.org/2000/svg" xmlns:xlink="http://www.w3.org/1999/xlink" xml:space="preserve" style="fill-rule:evenodd;clip-rule:evenodd;stroke-linejoin:round;stroke-miterlimit:1.41421;"><path d="M149.842,86.588c3.411,-3.323 6.99,-6.481 10.783,-9.364c3.322,-2.525 6.813,-4.849 10.516,-6.78c2.277,-1.188 4.638,-2.227 7.082,-3.021c2.041,-0.662 4.143,-1.153 6.278,-1.379c0.778,-0.083 1.558,-0.124 2.34,-0.136c0.29,-0.001 0.29,-0.001 0.58,0.002c0.576,0.014 1.151,0.043 1.725,0.1c1.135,0.113 2.262,0.322 3.359,0.636c2.29,0.655 4.435,1.775 6.275,3.288c1.433,1.18 2.671,2.586 3.7,4.13c1.341,2.012 2.328,4.244 3.044,6.55c0.565,1.821 0.965,3.692 1.241,5.577c0.316,2.157 0.472,4.335 0.513,6.513c0.052,2.765 -0.082,5.532 -0.346,8.284c-0.302,3.164 -0.778,6.311 -1.378,9.432c-0.472,2.455 -1.021,4.895 -1.636,7.318c0.741,0.208 1.48,0.423 2.218,0.644c3.845,1.153 7.643,2.476 11.346,4.029c1.936,0.812 3.846,1.688 5.717,2.642c1.427,0.727 2.831,1.5 4.203,2.327c1.1,0.662 2.179,1.36 3.23,2.097c0.733,0.514 1.452,1.048 2.154,1.603c2.435,1.926 4.686,4.122 6.488,6.659c0.786,1.106 1.483,2.276 2.059,3.504c0.666,1.421 1.169,2.919 1.464,4.461c0.17,0.887 0.271,1.787 0.301,2.69c0.041,1.237 -0.052,2.478 -0.275,3.696c-0.326,1.78 -0.926,3.511 -1.744,5.124c-0.349,0.688 -0.731,1.358 -1.147,2.008c-0.971,1.516 -2.112,2.919 -3.359,4.216c-1.255,1.306 -2.618,2.507 -4.047,3.62c-1.727,1.345 -3.552,2.563 -5.433,3.681c-1.825,1.085 -3.704,2.077 -5.618,2.994c-2.184,1.047 -4.415,1.997 -6.675,2.869c-3.559,1.373 -7.19,2.557 -10.862,3.59c0.622,2.446 1.178,4.909 1.654,7.388c0.5,2.599 0.912,5.215 1.212,7.845c0.234,2.06 0.4,4.128 0.476,6.2c0.058,1.579 0.064,3.16 0.006,4.739c-0.042,1.154 -0.119,2.306 -0.236,3.455c-0.091,0.882 -0.205,1.762 -0.347,2.638c-0.463,2.85 -1.217,5.67 -2.422,8.3c-0.565,1.233 -1.23,2.422 -2.006,3.535c-0.924,1.326 -2.007,2.543 -3.239,3.59c-0.761,0.648 -1.578,1.23 -2.439,1.736c-1.148,0.676 -2.374,1.216 -3.645,1.613c-1.777,0.554 -3.634,0.826 -5.493,0.858c-2.286,0.04 -4.569,-0.275 -6.785,-0.822c-2.856,-0.705 -5.61,-1.788 -8.248,-3.08c-3.685,-1.805 -7.163,-4.021 -10.469,-6.445c-4.163,-3.052 -8.069,-6.448 -11.775,-10.038l-0.34,-0.33l-0.222,0.216c-3.706,3.589 -7.612,6.986 -11.775,10.037c-3.307,2.424 -6.784,4.64 -10.469,6.445c-2.639,1.292 -5.393,2.376 -8.248,3.08c-2.217,0.547 -4.499,0.862 -6.785,0.823c-1.859,-0.033 -3.716,-0.304 -5.493,-0.858c-1.272,-0.397 -2.498,-0.938 -3.646,-1.613c-0.861,-0.507 -1.677,-1.089 -2.438,-1.736c-1.232,-1.048 -2.315,-2.264 -3.239,-3.59c-0.776,-1.114 -1.441,-2.303 -2.006,-3.536c-1.205,-2.63 -1.96,-5.45 -2.422,-8.299c-0.142,-0.876 -0.257,-1.756 -0.347,-2.639c-0.118,-1.148 -0.194,-2.301 -0.237,-3.454c-0.057,-1.579 -0.051,-3.161 0.007,-4.74c0.076,-2.072 0.241,-4.14 0.476,-6.2c0.299,-2.629 0.712,-5.246 1.211,-7.845c0.473,-2.46 1.025,-4.905 1.641,-7.333c-3.6,-1.019 -7.16,-2.183 -10.65,-3.53c-2.26,-0.872 -4.491,-1.822 -6.675,-2.869c-1.914,-0.917 -3.794,-1.909 -5.618,-2.994c-1.881,-1.118 -3.706,-2.336 -5.433,-3.681c-1.429,-1.113 -2.792,-2.314 -4.047,-3.62c-1.314,-1.367 -2.511,-2.853 -3.515,-4.463c-0.357,-0.572 -0.686,-1.16 -0.991,-1.761c-0.818,-1.613 -1.418,-3.344 -1.744,-5.124c-0.223,-1.217 -0.316,-2.458 -0.275,-3.696c0.03,-0.903 0.131,-1.803 0.301,-2.69c0.295,-1.542 0.798,-3.04 1.464,-4.461c0.576,-1.228 1.273,-2.398 2.059,-3.504c1.802,-2.537 4.053,-4.733 6.488,-6.659c0.702,-0.555 1.421,-1.089 2.154,-1.603c1.051,-0.737 2.13,-1.435 3.23,-2.097c1.372,-0.827 2.776,-1.6 4.203,-2.327c1.871,-0.954 3.781,-1.83 5.717,-2.642c3.703,-1.553 7.501,-2.876 11.346,-4.029c0.667,-0.2 1.336,-0.395 2.006,-0.585c-0.609,-2.405 -1.154,-4.826 -1.623,-7.263c-0.575,-2.991 -1.035,-6.006 -1.339,-9.037c-0.277,-2.763 -0.426,-5.541 -0.39,-8.318c0.03,-2.299 0.185,-4.598 0.518,-6.873c0.277,-1.886 0.676,-3.756 1.242,-5.577c0.716,-2.306 1.702,-4.539 3.044,-6.551c1.055,-1.583 2.33,-3.021 3.81,-4.219c1.815,-1.469 3.921,-2.556 6.165,-3.198c1.097,-0.314 2.224,-0.523 3.359,-0.636c0.574,-0.057 1.148,-0.086 1.725,-0.1c0.29,-0.003 0.289,-0.003 0.579,-0.003c0.783,0.012 1.563,0.054 2.341,0.136c2.029,0.215 4.03,0.67 5.975,1.283c2.44,0.769 4.798,1.787 7.072,2.955c3.699,1.9 7.187,4.197 10.505,6.697c3.869,2.915 7.517,6.119 10.989,9.495Zm46.266,95.581c-6.32,1.426 -12.725,2.481 -19.158,3.245c-1.901,0.226 -3.805,0.426 -5.712,0.601c-1.889,2.669 -3.838,5.295 -5.849,7.873c-2.516,3.225 -5.129,6.375 -7.851,9.428c-0.68,0.764 -1.368,1.521 -2.062,2.272c3.275,3.194 6.715,6.229 10.37,8.983c1.598,1.204 3.238,2.353 4.928,3.426c1.516,0.962 3.072,1.863 4.674,2.673c2.214,1.12 4.527,2.081 6.934,2.699c1.667,0.428 3.393,0.694 5.118,0.641c1.005,-0.031 2.009,-0.173 2.972,-0.465c0.611,-0.186 1.204,-0.431 1.764,-0.737c0.379,-0.206 0.743,-0.439 1.089,-0.696c0.226,-0.168 0.444,-0.347 0.655,-0.534c1.546,-1.381 2.613,-3.223 3.362,-5.136c0.132,-0.337 0.255,-0.678 0.369,-1.022c0.145,-0.437 0.277,-0.877 0.396,-1.321c0.148,-0.551 0.278,-1.107 0.392,-1.666c0.158,-0.772 0.286,-1.551 0.388,-2.333c0.124,-0.94 0.212,-1.885 0.27,-2.832c0.076,-1.234 0.103,-2.472 0.091,-3.708c-0.016,-1.575 -0.094,-3.148 -0.223,-4.718c-0.17,-2.087 -0.427,-4.166 -0.751,-6.235c-0.396,-2.531 -0.892,-5.046 -1.465,-7.542c-0.222,-0.968 -0.456,-1.934 -0.701,-2.896Zm-92.431,-0.049c-0.239,0.941 -0.467,1.884 -0.684,2.83c-0.573,2.497 -1.069,5.012 -1.465,7.543c-0.324,2.068 -0.581,4.148 -0.752,6.235c-0.128,1.569 -0.207,3.143 -0.222,4.717c-0.013,1.237 0.014,2.474 0.091,3.709c0.058,0.946 0.146,1.891 0.269,2.831c0.103,0.782 0.231,1.561 0.388,2.334c0.114,0.559 0.244,1.115 0.393,1.666c0.119,0.443 0.25,0.884 0.395,1.32c0.115,0.344 0.238,0.685 0.37,1.023c0.749,1.913 1.816,3.755 3.362,5.135c0.21,0.188 0.429,0.366 0.655,0.535c0.346,0.257 0.71,0.49 1.088,0.696c0.561,0.305 1.154,0.551 1.765,0.736c0.963,0.292 1.967,0.435 2.971,0.466c1.726,0.052 3.451,-0.213 5.119,-0.641c2.407,-0.618 4.72,-1.58 6.934,-2.699c1.602,-0.811 3.158,-1.711 4.674,-2.673c1.689,-1.073 3.33,-2.222 4.928,-3.427c3.613,-2.722 7.017,-5.719 10.259,-8.874c-0.657,-0.711 -1.307,-1.429 -1.951,-2.152c-2.722,-3.053 -5.335,-6.202 -7.851,-9.427c-2.047,-2.625 -4.03,-5.298 -5.951,-8.016c-1.806,-0.168 -3.611,-0.359 -5.412,-0.573c-6.506,-0.773 -12.983,-1.843 -19.373,-3.294Zm35.325,4.599c0.587,0.777 1.18,1.549 1.779,2.317c2.31,2.961 4.706,5.857 7.198,8.668c0.617,0.697 1.24,1.388 1.869,2.074c0.559,-0.607 1.112,-1.219 1.661,-1.835c2.604,-2.922 5.105,-5.936 7.512,-9.022c0.566,-0.726 1.127,-1.455 1.683,-2.189c-3.566,0.16 -7.135,0.238 -10.704,0.238c-3.667,0 -7.335,-0.082 -10.998,-0.251Zm27.769,-67.066c-2.79,-0.207 -5.583,-0.36 -8.378,-0.462c-2.232,-0.081 -4.465,-0.126 -6.698,-0.145c-0.754,-0.005 -1.507,-0.007 -2.261,-0.006c-2.241,0.008 -4.481,0.043 -6.72,0.114c-3.262,0.102 -6.522,0.275 -9.776,0.52c-2.43,3.567 -4.753,7.207 -6.974,10.907c-3.584,5.972 -6.907,12.103 -9.928,18.38c3.031,6.303 6.367,12.461 9.966,18.458c2.207,3.677 4.515,7.295 6.929,10.841c5.491,0.415 10.997,0.621 16.503,0.634c5.786,0.014 11.574,-0.184 17.344,-0.613c2.448,-3.589 4.787,-7.253 7.022,-10.977c3.577,-5.96 6.895,-12.079 9.911,-18.343c-3.007,-6.237 -6.311,-12.33 -9.874,-18.266c-2.248,-3.747 -4.602,-7.432 -7.066,-11.042Zm21.228,38.788c-2.02,3.899 -4.152,7.74 -6.383,11.521c-1.451,2.458 -2.945,4.891 -4.484,7.295c5.014,-0.623 10.006,-1.437 14.951,-2.477c0.603,-0.127 1.206,-0.257 1.809,-0.391c-1.699,-5.408 -3.685,-10.726 -5.893,-15.948Zm-76.25,0.011c-2.195,5.203 -4.17,10.501 -5.86,15.888c0.371,0.083 0.741,0.165 1.111,0.245c5.148,1.113 10.348,1.978 15.573,2.635c-1.505,-2.355 -2.966,-4.738 -4.387,-7.144c-2.251,-3.814 -4.401,-7.689 -6.437,-11.624Zm89.972,-32.943c-0.644,2.076 -1.331,4.138 -2.053,6.188c-1.444,4.095 -3.034,8.139 -4.747,12.129c-0.739,1.721 -1.5,3.432 -2.283,5.133c0.797,1.728 1.57,3.466 2.321,5.214c1.713,3.991 3.302,8.034 4.747,12.13c0.714,2.027 1.393,4.066 2.032,6.118c1.769,-0.498 3.527,-1.033 5.271,-1.609c4.068,-1.344 8.074,-2.91 11.912,-4.818c1.651,-0.822 3.272,-1.708 4.841,-2.679c1.387,-0.858 2.734,-1.783 4.014,-2.795c1.729,-1.367 3.354,-2.901 4.675,-4.672c0.773,-1.037 1.441,-2.161 1.905,-3.371c0.285,-0.739 0.491,-1.51 0.595,-2.296c0.07,-0.528 0.095,-1.062 0.073,-1.594c-0.015,-0.355 -0.05,-0.71 -0.106,-1.061c-0.337,-2.134 -1.403,-4.084 -2.719,-5.77c-0.221,-0.283 -0.449,-0.559 -0.685,-0.83c-0.299,-0.343 -0.608,-0.677 -0.927,-1.002c-0.454,-0.464 -0.926,-0.91 -1.412,-1.34c-0.59,-0.523 -1.201,-1.023 -1.826,-1.503c-0.832,-0.637 -1.689,-1.239 -2.566,-1.813c-1.043,-0.681 -2.112,-1.321 -3.2,-1.927c-1.488,-0.829 -3.011,-1.594 -4.557,-2.308c-1.803,-0.834 -3.639,-1.598 -5.495,-2.306c-3.217,-1.226 -6.496,-2.286 -9.81,-3.218Zm-103.658,0.061c-3.115,0.882 -6.2,1.878 -9.23,3.019c-1.98,0.747 -3.938,1.556 -5.859,2.444c-1.546,0.714 -3.069,1.479 -4.557,2.308c-1.088,0.606 -2.157,1.246 -3.2,1.927c-0.877,0.574 -1.734,1.176 -2.566,1.813c-0.625,0.48 -1.236,0.98 -1.826,1.503c-0.486,0.43 -0.958,0.876 -1.412,1.34c-0.319,0.325 -0.628,0.659 -0.927,1.002c-0.236,0.271 -0.464,0.547 -0.685,0.83c-1.316,1.686 -2.382,3.636 -2.719,5.77c-0.056,0.351 -0.091,0.705 -0.106,1.061c-0.022,0.532 0.003,1.066 0.073,1.594c0.104,0.786 0.31,1.557 0.595,2.296c0.464,1.21 1.132,2.334 1.905,3.371c1.267,1.7 2.816,3.18 4.466,4.505c1.262,1.014 2.593,1.94 3.964,2.8c1.552,0.974 3.157,1.863 4.794,2.687c3.687,1.856 7.533,3.389 11.441,4.712c1.929,0.653 3.874,1.254 5.833,1.809c0.643,-2.07 1.328,-4.128 2.049,-6.173c1.444,-4.095 3.034,-8.139 4.747,-12.129c0.734,-1.71 1.49,-3.41 2.268,-5.1c-0.765,-1.663 -1.508,-3.336 -2.23,-5.018c-1.713,-3.991 -3.303,-8.034 -4.747,-12.13c-0.729,-2.067 -1.421,-4.147 -2.071,-6.241Zm51.937,6.533c9.307,0 16.864,7.557 16.864,16.864c0,9.307 -7.557,16.864 -16.864,16.864c-9.307,0 -16.864,-7.557 -16.864,-16.864c0,-9.307 7.557,-16.864 16.864,-16.864Zm27.128,-11.426c1.658,2.589 3.265,5.212 4.821,7.863c2.109,3.592 4.128,7.239 6.046,10.938c2.203,-5.218 4.186,-10.532 5.881,-15.936c-1.368,-0.305 -2.74,-0.59 -4.116,-0.859c-4.185,-0.818 -8.4,-1.48 -12.632,-2.006Zm-54.551,0.037c-3.974,0.5 -7.934,1.12 -11.867,1.878c-1.607,0.309 -3.209,0.641 -4.805,0.998c1.686,5.384 3.657,10.677 5.848,15.876c1.935,-3.734 3.971,-7.415 6.1,-11.041c1.526,-2.599 3.1,-5.171 4.724,-7.711Zm21.636,-28.335c-3.052,-2.968 -6.248,-5.794 -9.626,-8.385c-1.607,-1.232 -3.255,-2.41 -4.954,-3.512c-1.441,-0.936 -2.919,-1.818 -4.438,-2.622c-2.035,-1.078 -4.149,-2.024 -6.347,-2.717c-1.496,-0.471 -3.036,-0.826 -4.599,-0.974c-0.452,-0.042 -0.904,-0.064 -1.357,-0.071c-0.185,-0.001 -0.185,-0.001 -0.371,0.001c-0.356,0.009 -0.711,0.026 -1.066,0.062c-0.706,0.07 -1.407,0.202 -2.087,0.408c-0.611,0.185 -1.204,0.431 -1.765,0.736c-0.378,0.207 -0.742,0.44 -1.088,0.697c-1.84,1.368 -3.09,3.374 -3.94,5.474c-0.134,0.333 -0.259,0.669 -0.376,1.008c-0.148,0.43 -0.282,0.865 -0.404,1.304c-0.152,0.544 -0.286,1.094 -0.404,1.647c-0.162,0.764 -0.295,1.535 -0.402,2.309c-0.13,0.932 -0.223,1.869 -0.287,2.808c-0.084,1.225 -0.118,2.453 -0.113,3.681c0.007,1.564 0.077,3.129 0.197,4.689c0.15,1.948 0.377,3.891 0.664,5.825c0.372,2.51 0.845,5.005 1.396,7.482c0.266,1.198 0.55,2.391 0.851,3.581c1.012,-0.23 2.026,-0.45 3.042,-0.66c5.57,-1.154 11.195,-2.036 16.844,-2.692c1.628,-0.189 3.257,-0.36 4.889,-0.511c1.703,-2.408 3.454,-4.781 5.256,-7.115c2.512,-3.255 5.122,-6.435 7.84,-9.52c0.87,-0.988 1.751,-1.966 2.645,-2.933Zm51.875,23.382c0.307,-1.211 0.597,-2.426 0.868,-3.646c0.551,-2.477 1.024,-4.972 1.396,-7.483c0.287,-1.933 0.514,-3.876 0.663,-5.825c0.112,-1.453 0.181,-2.91 0.195,-4.367c0.013,-1.237 -0.014,-2.474 -0.091,-3.709c-0.058,-0.946 -0.146,-1.891 -0.269,-2.831c-0.103,-0.782 -0.231,-1.561 -0.388,-2.334c-0.114,-0.559 -0.244,-1.115 -0.393,-1.666c-0.119,-0.443 -0.25,-0.884 -0.395,-1.32c-0.115,-0.344 -0.238,-0.685 -0.37,-1.023c-0.749,-1.913 -1.816,-3.755 -3.362,-5.135c-0.229,-0.205 -0.468,-0.398 -0.716,-0.58c-0.369,-0.269 -0.757,-0.511 -1.162,-0.723c-0.59,-0.309 -1.214,-0.552 -1.856,-0.73c-0.721,-0.2 -1.463,-0.319 -2.209,-0.372c-0.363,-0.026 -0.726,-0.034 -1.089,-0.034c-0.453,0.007 -0.906,0.029 -1.357,0.072c-1.563,0.147 -3.103,0.502 -4.599,0.974c-2.198,0.692 -4.312,1.639 -6.347,2.716c-1.62,0.858 -3.192,1.803 -4.724,2.808c-1.598,1.049 -3.152,2.164 -4.668,3.327c-3.42,2.622 -6.652,5.485 -9.737,8.493c0.931,1.006 1.85,2.024 2.756,3.053c2.718,3.085 5.328,6.265 7.84,9.52c1.766,2.289 3.484,4.614 5.155,6.973c1.731,0.159 3.461,0.338 5.188,0.539c5.649,0.656 11.274,1.538 16.844,2.692c0.944,0.196 1.886,0.399 2.827,0.611Zm-46.24,-17.581c-0.749,0.816 -1.489,1.64 -2.221,2.471c-2.491,2.826 -4.886,5.736 -7.195,8.713c-0.477,0.614 -0.95,1.232 -1.42,1.852c1.149,-0.053 2.298,-0.098 3.447,-0.134c2.318,-0.073 4.637,-0.109 6.956,-0.117c0.39,-0.001 0.78,-0.001 1.17,0c2.319,0.008 4.638,0.044 6.956,0.117c1.05,0.033 2.101,0.073 3.151,0.121c-0.437,-0.578 -0.878,-1.153 -1.322,-1.725c-2.309,-2.976 -4.705,-5.886 -7.195,-8.713c-0.767,-0.87 -1.542,-1.732 -2.327,-2.585Z" style="fill:#fff;fill-opacity:0.74902;"/></svg>